<svg width="256" height="250" viewBox="0 0 256 250" fill="none" xmlns="http://www.w3.org/2000/svg">
<g clip-path="url(#clip0_914_10)">
<path d="M213.5 0H42.5C19.0279 0 0 19.0279 0 42.5V207.1C0 230.572 19.0279 249.6 42.5 249.6H213.5C236.972 249.6 256 230.572 256 207.1V42.5C256 19.0279 236.972 0 213.5 0Z" fill="#001E36"/>
<path d="M57.6436 175.035V65.2971C57.6436 64.4971 57.9876 64.0951 58.6746 64.0951L59.7616 64.0921L61.6196 64.0721L64.2016 64.0211L72.8516 63.8381L82.1266 63.6661C85.3886 63.6101 88.6226 63.5801 91.8286 63.5801C100.529 63.5801 107.856 64.6681 113.811 66.8431C119.182 68.6601 124.081 71.652 128.151 75.6011C131.6 79.0244 134.266 83.1554 135.965 87.7091C137.571 92.1403 138.385 96.8197 138.37 101.533C138.37 110.694 136.251 118.25 132.015 124.202C127.871 130.009 122.092 134.45 115.415 136.958L114.842 137.168C107.869 139.769 100.147 140.709 91.6776 140.768L90.3616 140.772L88.4086 140.762L87.4236 140.748L86.3256 140.722L85.6636 140.696L85.2616 140.675L84.2726 140.639L83.0636 140.614L81.2436 140.601L80.8386 140.6V174.863C80.8687 175.073 80.8494 175.287 80.7824 175.489C80.7153 175.69 80.6023 175.873 80.4523 176.023C80.3023 176.173 80.1193 176.286 79.918 176.353C79.7167 176.42 79.5026 176.439 79.2926 176.409H58.8466C58.0436 176.409 57.6436 175.953 57.6436 175.035V175.035ZM80.8396 84.7031V120.495C82.2101 120.606 83.5845 120.663 84.9596 120.667H90.6276C94.5353 120.654 98.4204 120.072 102.161 118.94L102.907 118.707C106.309 117.696 109.35 115.729 111.666 113.039C113.818 110.501 114.933 107.004 115.01 102.547L115.015 102.048C115.105 98.7261 114.241 95.4481 112.524 92.6031C110.719 89.8516 108.111 87.7228 105.054 86.5061C101.062 84.9545 96.7974 84.2246 92.5166 84.3601L90.3386 84.3661L88.9646 84.3781L87.6536 84.3951L85.8036 84.4311L84.4536 84.4691L83.7526 84.4951L82.8156 84.5391L82.0176 84.5881L81.5626 84.6241L81.1696 84.6621L80.9966 84.6821L80.8396 84.7031V84.7031ZM204.77 113.987C201.774 112.448 198.596 111.291 195.312 110.545L194.552 110.381C190.938 109.552 187.249 109.095 183.543 109.018L182.617 109.007C180.444 108.948 178.274 109.209 176.177 109.78C174.841 110.077 173.654 110.837 172.827 111.926C172.267 112.797 171.969 113.811 171.969 114.846C172 115.85 172.362 116.816 172.999 117.593C173.91 118.659 175.006 119.552 176.234 120.23L176.606 120.427C179.054 121.745 181.577 122.921 184.162 123.947C189.925 125.877 195.432 128.5 200.562 131.761C204.056 133.967 206.948 137.006 208.978 140.606C210.684 144.014 211.538 147.785 211.468 151.596C211.57 156.629 210.132 161.573 207.346 165.765C204.362 170.02 200.219 173.328 195.41 175.295C190.373 177.509 184.187 178.652 176.853 178.727L176.091 178.731C171.544 178.777 167.004 178.379 162.535 177.543L161.579 177.357C157.816 176.667 154.153 175.513 150.674 173.922C150.324 173.742 150.028 173.471 149.817 173.139C149.606 172.807 149.487 172.425 149.472 172.032V153.314C149.451 153.132 149.48 152.949 149.556 152.782C149.632 152.616 149.751 152.473 149.902 152.369C150.049 152.286 150.218 152.249 150.387 152.265C150.556 152.28 150.716 152.346 150.846 152.455C154.954 154.878 159.415 156.645 164.069 157.693C168.17 158.721 172.377 159.269 176.606 159.325C180.612 159.325 183.56 158.809 185.45 157.779C186.303 157.388 187.025 156.759 187.528 155.966C188.031 155.174 188.293 154.253 188.284 153.314C188.284 151.828 187.425 150.396 185.708 149.021C184.988 148.445 183.955 147.818 182.611 147.141L181.968 146.825L181.282 146.502L180.922 146.338L180.168 146.004C180.037 145.947 179.906 145.89 179.775 145.834L178.955 145.49L178.528 145.315L177.642 144.96L177.182 144.78L176.229 144.413L175.232 144.04C169.839 142.163 164.726 139.564 160.033 136.312C156.676 133.977 153.912 130.89 151.962 127.296C150.273 123.912 149.419 120.173 149.472 116.391C149.462 111.847 150.71 107.389 153.078 103.511C155.778 99.2411 159.654 95.8411 164.241 93.7231C169.278 91.2061 175.574 89.9461 183.131 89.9441C187.557 89.9085 191.979 90.2245 196.355 90.8891C199.523 91.291 202.621 92.1289 205.561 93.3791C206.034 93.5151 206.415 93.8641 206.591 94.3241C206.708 94.7431 206.765 95.1761 206.763 95.6121V112.957C206.788 113.367 206.591 113.76 206.248 113.987C206.018 114.101 205.765 114.161 205.509 114.161C205.252 114.161 204.999 114.101 204.77 113.987V113.987Z" fill="#31A8FF"/>
</g>
<defs>
<clipPath id="clip0_914_10">
<rect width="256" height="250" fill="white"/>
</clipPath>
</defs>
</svg>
