<svg width="256" height="250" viewBox="0 0 256 250" fill="none" xmlns="http://www.w3.org/2000/svg">
<g clip-path="url(#clip0_914_7)">
<path d="M213.5 0H42.5C19.0279 0 0 19.0279 0 42.5V207.1C0 230.572 19.0279 249.6 42.5 249.6H213.5C236.972 249.6 256 230.572 256 207.1V42.5C256 19.0279 236.972 0 213.5 0Z" fill="#470137"/>
<path d="M134.578 65.6398L102.635 118.363L136.81 174.348C137.03 174.74 137.091 175.2 136.982 175.636C136.929 175.822 136.815 175.868 136.64 175.875L136.446 175.872L136.21 175.866C136.082 175.866 135.939 175.872 135.78 175.898H111.14L110.656 175.89C109.328 175.855 108.371 175.665 107.788 174.691C105.508 170.249 103.218 165.813 100.918 161.382C98.8607 157.43 96.7471 153.507 94.5781 149.615L93.6201 147.901C91.0259 143.29 88.4784 138.653 85.9781 133.991H85.8061C83.4971 138.604 81.1212 143.184 78.6791 147.729C76.2161 152.309 73.7831 156.861 71.3801 161.382C68.9757 165.906 66.5142 170.4 63.9961 174.863C63.5911 175.773 62.9181 175.963 61.9811 175.994L61.5911 176H38.0641L37.9621 176.003L37.6261 176.033C37.4391 176.044 37.3271 176.004 37.2911 175.722C37.2266 175.303 37.3184 174.875 37.5491 174.52L70.6931 120.08L38.4071 65.4698C38.0641 65.0138 38.0071 64.6418 38.2351 64.3538C38.3619 64.2071 38.521 64.0919 38.6999 64.0173C38.8789 63.9426 39.0727 63.9107 39.2661 63.9238H63.4801C64.0082 63.8949 64.5361 63.983 65.0261 64.1818C65.4361 64.4148 65.7891 64.7378 66.0561 65.1268C68.1171 69.7068 70.4071 74.2868 72.9261 78.8648C75.4256 83.414 77.9731 87.9366 80.5681 92.4318C83.1234 96.8575 85.501 101.383 87.6951 105.999H87.8671C90.1157 101.385 92.4343 96.8047 94.8221 92.2608C97.1671 87.7958 99.5721 83.3008 102.034 78.7788C104.465 74.3149 106.841 69.8212 109.161 65.2988C109.293 64.8748 109.529 64.4908 109.848 64.1818C110.272 63.9671 110.749 63.8776 111.222 63.9238H133.719C133.926 63.8723 134.144 63.8893 134.34 63.9723C134.537 64.0553 134.701 64.1998 134.808 64.384C134.915 64.5683 134.959 64.7824 134.934 64.9941C134.909 65.2058 134.816 65.4036 134.669 65.5578L134.579 65.6418L134.578 65.6398ZM185.048 178.113L183.864 178.126C175.96 178.246 168.127 176.604 160.937 173.318C154.239 170.218 148.64 165.157 144.88 158.806C141.089 152.51 139.143 144.664 139.045 135.271L139.041 134.506C138.977 126.624 140.991 118.864 144.881 112.009C148.774 105.224 154.45 99.633 161.293 95.8428L161.882 95.5228C169.322 91.4008 178.31 89.3398 188.844 89.3398L189.304 89.3448L189.83 89.3618L190.42 89.3878L191.076 89.4258L192.178 89.5038L193.426 89.6038L194.339 89.6838V55.8518C194.339 55.0518 194.683 54.6498 195.369 54.6498H217.008C217.148 54.6298 217.291 54.6426 217.425 54.6872C217.559 54.7319 217.681 54.8072 217.781 54.9072C217.881 55.0071 217.956 55.129 218.001 55.2631C218.045 55.3972 218.058 55.5399 218.038 55.6798V157.175C218.038 158.879 218.104 160.715 218.236 162.679L218.556 167.134L218.726 169.711C218.747 170.068 218.66 170.423 218.476 170.729C218.292 171.036 218.02 171.28 217.695 171.429C212.113 173.757 206.298 175.483 200.35 176.58C195.3 177.512 190.182 178.025 185.048 178.113V178.113ZM194.339 156.831V109.948C193.411 109.697 192.463 109.524 191.506 109.433C190.336 109.315 189.161 109.258 187.985 109.261C183.818 109.22 179.7 110.161 175.964 112.009C172.326 113.817 169.219 116.54 166.948 119.909C164.681 123.225 163.508 127.555 163.431 132.899L163.427 133.476C163.344 137.219 163.955 140.945 165.23 144.466C166.268 147.303 167.909 149.881 170.04 152.023C172.079 153.993 174.548 155.463 177.252 156.316C180.108 157.241 183.094 157.705 186.096 157.691C187.698 157.691 189.186 157.633 190.561 157.518C191.658 157.435 192.745 157.255 193.809 156.978L194.339 156.831V156.831Z" fill="#FF61F6"/>
</g>
<defs>
<clipPath id="clip0_914_7">
<rect width="256" height="250" fill="white"/>
</clipPath>
</defs>
</svg>
