<svg width="218" height="269" viewBox="0 0 218 269" fill="none" xmlns="http://www.w3.org/2000/svg">
<path d="M69.6863 268.899C52.4651 261.275 40.7638 244.849 39.2284 226.037C39.7261 216.501 42.4685 207.218 47.2314 198.948C51.9942 190.677 58.6424 183.654 66.6326 178.451C63.974 184.948 64.6195 192.345 68.3102 198.289C70.3619 201.166 73.205 203.382 76.4924 204.667C79.7798 205.952 83.3695 206.25 86.8232 205.525C96.9057 202.685 102.811 192.194 99.9765 182.082C98.9683 178.535 96.9653 175.351 94.2054 172.911C88.595 168.337 84.2575 162.389 81.6124 155.643C78.9673 148.898 78.1041 141.582 79.1063 134.404C81.0704 126.643 85.345 119.665 91.3621 114.398C86.8317 126.503 99.6078 138.447 108.18 144.323C123.395 153.472 138.05 163.524 152.068 174.425C167.393 186.53 175.748 205.477 174.44 224.861C170.992 245.489 156.429 262.52 136.583 268.908C176.285 260.057 217.22 228.45 218 183.621C217.22 147.753 195.855 115.566 163.199 100.906H161.748C162.475 102.665 162.818 104.56 162.755 106.462C162.864 105.232 162.864 103.994 162.755 102.764C162.931 104.216 162.931 105.683 162.755 107.135C160.272 117.332 150.004 123.611 139.804 121.122C135.728 120.114 132.087 117.82 129.47 114.507C116.384 97.6959 129.47 78.5636 131.659 60.0696C132.323 48.458 130.054 36.8661 125.062 26.3664C120.07 15.8666 112.515 6.79817 103.098 0C112.669 15.9885 99.9186 36.9863 90.6493 48.9316C81.3638 60.876 67.9423 69.7783 57.004 80.2012C45.2183 91.1882 34.4145 103.267 24.7177 116.179C3.75473 141.843 -4.47394 175.694 2.34539 208.14C11.699 239.411 37.6351 262.905 69.6199 269H69.7962L69.6872 268.899H69.6863Z" fill="#DD4814"/>
</svg>
