<svg width="426" height="20" viewBox="0 0 426 20" fill="none" xmlns="http://www.w3.org/2000/svg">
<mask id="path-1-inside-1_263_290" fill="white">
<path d="M16.52 0H26L10.52 20H0L16.52 0Z"/>
<path d="M48.52 0H58L42.52 20H32L48.52 0Z"/>
<path d="M80.52 0H90L74.52 20H64L80.52 0Z"/>
<path d="M112.52 0H122L106.52 20H96L112.52 0Z"/>
<path d="M144.52 0H154L138.52 20H128L144.52 0Z"/>
<path d="M176.52 0H186L170.52 20H160L176.52 0Z"/>
<path d="M208.52 0H218L202.52 20H192L208.52 0Z"/>
<path d="M240.52 0H250L234.52 20H224L240.52 0Z"/>
<path d="M272.52 0H282L266.52 20H256L272.52 0Z"/>
<path d="M304.52 0H314L298.52 20H288L304.52 0Z"/>
<path d="M336.52 0H346L330.52 20H320L336.52 0Z"/>
<path d="M367.52 0H377L361.52 20H351L367.52 0Z"/>
<path d="M399.52 0H409L393.52 20H383L399.52 0Z"/>
</mask>
<path d="M16.52 0H26L10.52 20H0L16.52 0Z" fill="#1B1A1A"/>
<path d="M48.52 0H58L42.52 20H32L48.52 0Z" fill="#1B1A1A"/>
<path d="M80.52 0H90L74.52 20H64L80.52 0Z" fill="#1B1A1A"/>
<path d="M112.52 0H122L106.52 20H96L112.52 0Z" fill="#1B1A1A"/>
<path d="M144.52 0H154L138.52 20H128L144.52 0Z" fill="#1B1A1A"/>
<path d="M176.52 0H186L170.52 20H160L176.52 0Z" fill="#1B1A1A"/>
<path d="M208.52 0H218L202.52 20H192L208.52 0Z" fill="#1B1A1A"/>
<path d="M240.52 0H250L234.52 20H224L240.52 0Z" fill="#1B1A1A"/>
<path d="M272.52 0H282L266.52 20H256L272.52 0Z" fill="#1B1A1A"/>
<path d="M304.52 0H314L298.52 20H288L304.52 0Z" fill="#1B1A1A"/>
<path d="M336.52 0H346L330.52 20H320L336.52 0Z" fill="#1B1A1A"/>
<path d="M367.52 0H377L361.52 20H351L367.52 0Z" fill="#1B1A1A"/>
<path d="M399.52 0H409L393.52 20H383L399.52 0Z" fill="#1B1A1A"/>
<path d="M32.52 0V-0.1H32.4729L32.4429 -0.0636842L32.52 0ZM42 0L42.0791 0.0612077L42.2039 -0.1L42 -0.1V0ZM26.52 20V20.1H26.5691L26.5991 20.0612L26.52 20ZM16 20L15.9229 19.9363L15.7877 20.1H16V20ZM64.52 0V-0.1H64.4729L64.4429 -0.0636842L64.52 0ZM74 0L74.0791 0.0612077L74.2039 -0.1L74 -0.1V0ZM58.52 20V20.1H58.5691L58.5991 20.0612L58.52 20ZM48 20L47.9229 19.9363L47.7877 20.1H48V20ZM96.52 0V-0.1H96.4729L96.4429 -0.0636842L96.52 0ZM106 0L106.079 0.0612078L106.204 -0.1L106 -0.1V0ZM90.52 20V20.1H90.5691L90.5991 20.0612L90.52 20ZM80 20L79.9229 19.9363L79.7877 20.1H80V20ZM128.52 0V-0.1H128.473L128.443 -0.0636842L128.52 0ZM138 0L138.079 0.0612078L138.204 -0.1L138 -0.1V0ZM122.52 20V20.1H122.569L122.599 20.0612L122.52 20ZM112 20L111.923 19.9363L111.788 20.1H112V20ZM160.52 0V-0.1H160.473L160.443 -0.0636842L160.52 0ZM170 0L170.079 0.0612077L170.204 -0.1H170V0ZM154.52 20V20.1H154.569L154.599 20.0612L154.52 20ZM144 20L143.923 19.9363L143.788 20.1H144V20ZM192.52 0V-0.1H192.473L192.443 -0.0636842L192.52 0ZM202 0L202.079 0.0612077L202.204 -0.1H202V0ZM186.52 20V20.1H186.569L186.599 20.0612L186.52 20ZM176 20L175.923 19.9363L175.788 20.1H176V20ZM224.52 0V-0.1H224.473L224.443 -0.0636842L224.52 0ZM234 0L234.079 0.0612077L234.204 -0.1H234V0ZM218.52 20V20.1H218.569L218.599 20.0612L218.52 20ZM208 20L207.923 19.9363L207.788 20.1H208V20ZM256.52 0V-0.1H256.473L256.443 -0.0636841L256.52 0ZM266 0L266.079 0.0612077L266.204 -0.1H266V0ZM250.52 20V20.1H250.569L250.599 20.0612L250.52 20ZM240 20L239.923 19.9363L239.788 20.1H240V20ZM288.52 0V-0.1H288.473L288.443 -0.0636841L288.52 0ZM298 0L298.079 0.0612078L298.204 -0.1L298 -0.1V0ZM282.52 20V20.1H282.569L282.599 20.0612L282.52 20ZM272 20L271.923 19.9363L271.788 20.1H272V20ZM320.52 0V-0.1H320.473L320.443 -0.0636841L320.52 0ZM330 0L330.079 0.0612078L330.204 -0.1L330 -0.1V0ZM314.52 20V20.1H314.569L314.599 20.0612L314.52 20ZM304 20L303.923 19.9363L303.788 20.1H304V20ZM351.52 0V-0.1H351.473L351.443 -0.0636841L351.52 0ZM361 0L361.079 0.0612078L361.204 -0.1L361 -0.1V0ZM345.52 20V20.1H345.569L345.599 20.0612L345.52 20ZM335 20L334.923 19.9363L334.788 20.1H335V20ZM383.52 0V-0.1H383.473L383.443 -0.0636841L383.52 0ZM393 0L393.079 0.0612078L393.204 -0.1L393 -0.1V0ZM377.52 20V20.1H377.569L377.599 20.0612L377.52 20ZM367 20L366.923 19.9363L366.788 20.1H367V20ZM415.52 0V-0.1H415.473L415.443 -0.0636842L415.52 0ZM425 0L425.079 0.0612078L425.204 -0.1L425 -0.1V0ZM409.52 20V20.1H409.569L409.599 20.0612L409.52 20ZM399 20L398.923 19.9363L398.788 20.1H399V20ZM32.52 0.1H42V-0.1H32.52V0.1ZM41.9209 -0.0612077L26.4409 19.9388L26.5991 20.0612L42.0791 0.0612077L41.9209 -0.0612077ZM26.52 19.9H16V20.1H26.52V19.9ZM16.0771 20.0637L32.5971 0.0636842L32.4429 -0.0636842L15.9229 19.9363L16.0771 20.0637ZM64.52 0.1H74V-0.1H64.52V0.1ZM73.9209 -0.0612077L58.4409 19.9388L58.5991 20.0612L74.0791 0.0612077L73.9209 -0.0612077ZM58.52 19.9H48V20.1H58.52V19.9ZM48.0771 20.0637L64.5971 0.0636842L64.4429 -0.0636842L47.9229 19.9363L48.0771 20.0637ZM96.52 0.1H106V-0.1H96.52V0.1ZM105.921 -0.0612078L90.4409 19.9388L90.5991 20.0612L106.079 0.0612078L105.921 -0.0612078ZM90.52 19.9H80V20.1H90.52V19.9ZM80.0771 20.0637L96.5971 0.0636842L96.4429 -0.0636842L79.9229 19.9363L80.0771 20.0637ZM128.52 0.1H138V-0.1H128.52V0.1ZM137.921 -0.0612078L122.441 19.9388L122.599 20.0612L138.079 0.0612078L137.921 -0.0612078ZM122.52 19.9H112V20.1H122.52V19.9ZM112.077 20.0637L128.597 0.0636842L128.443 -0.0636842L111.923 19.9363L112.077 20.0637ZM160.52 0.1H170V-0.1H160.52V0.1ZM169.921 -0.0612077L154.441 19.9388L154.599 20.0612L170.079 0.0612077L169.921 -0.0612077ZM154.52 19.9H144V20.1H154.52V19.9ZM144.077 20.0637L160.597 0.0636842L160.443 -0.0636842L143.923 19.9363L144.077 20.0637ZM192.52 0.1H202V-0.1H192.52V0.1ZM201.921 -0.0612077L186.441 19.9388L186.599 20.0612L202.079 0.0612077L201.921 -0.0612077ZM186.52 19.9H176V20.1H186.52V19.9ZM176.077 20.0637L192.597 0.0636842L192.443 -0.0636842L175.923 19.9363L176.077 20.0637ZM224.52 0.1H234V-0.1H224.52V0.1ZM233.921 -0.0612077L218.441 19.9388L218.599 20.0612L234.079 0.0612077L233.921 -0.0612077ZM218.52 19.9H208V20.1H218.52V19.9ZM208.077 20.0637L224.597 0.0636842L224.443 -0.0636842L207.923 19.9363L208.077 20.0637ZM256.52 0.1H266V-0.1H256.52V0.1ZM265.921 -0.0612077L250.441 19.9388L250.599 20.0612L266.079 0.0612077L265.921 -0.0612077ZM250.52 19.9H240V20.1H250.52V19.9ZM240.077 20.0637L256.597 0.0636841L256.443 -0.0636841L239.923 19.9363L240.077 20.0637ZM288.52 0.1H298V-0.1H288.52V0.1ZM297.921 -0.0612078L282.441 19.9388L282.599 20.0612L298.079 0.0612078L297.921 -0.0612078ZM282.52 19.9H272V20.1H282.52V19.9ZM272.077 20.0637L288.597 0.0636841L288.443 -0.0636841L271.923 19.9363L272.077 20.0637ZM320.52 0.1H330V-0.1H320.52V0.1ZM329.921 -0.0612078L314.441 19.9388L314.599 20.0612L330.079 0.0612078L329.921 -0.0612078ZM314.52 19.9H304V20.1H314.52V19.9ZM304.077 20.0637L320.597 0.0636841L320.443 -0.0636841L303.923 19.9363L304.077 20.0637ZM351.52 0.1H361V-0.1H351.52V0.1ZM360.921 -0.0612078L345.441 19.9388L345.599 20.0612L361.079 0.0612078L360.921 -0.0612078ZM345.52 19.9H335V20.1H345.52V19.9ZM335.077 20.0637L351.597 0.0636841L351.443 -0.0636841L334.923 19.9363L335.077 20.0637ZM383.52 0.1H393V-0.1H383.52V0.1ZM392.921 -0.0612078L377.441 19.9388L377.599 20.0612L393.079 0.0612078L392.921 -0.0612078ZM377.52 19.9H367V20.1H377.52V19.9ZM367.077 20.0637L383.597 0.0636841L383.443 -0.0636841L366.923 19.9363L367.077 20.0637ZM415.52 0.1H425V-0.1H415.52V0.1ZM424.921 -0.0612078L409.441 19.9388L409.599 20.0612L425.079 0.0612078L424.921 -0.0612078ZM409.52 19.9H399V20.1H409.52V19.9ZM399.077 20.0637L415.597 0.0636842L415.443 -0.0636842L398.923 19.9363L399.077 20.0637ZM425.52 19.9H415V20.1H425.52V19.9ZM16.52 0V-0.2H16.4258L16.3658 -0.127368L16.52 0ZM26 0L26.1582 0.122416L26.4077 -0.2H26V0ZM10.52 20V20.2H10.6181L10.6782 20.1224L10.52 20ZM0 20L-0.154199 19.8726L-0.424605 20.2H0V20ZM48.52 0V-0.2H48.4258L48.3658 -0.127368L48.52 0ZM58 0L58.1582 0.122415L58.4077 -0.2L58 -0.2V0ZM42.52 20V20.2H42.6181L42.6782 20.1224L42.52 20ZM32 20L31.8458 19.8726L31.5754 20.2H32V20ZM80.52 0V-0.2H80.4258L80.3658 -0.127368L80.52 0ZM90 0L90.1582 0.122416L90.4077 -0.2L90 -0.2V0ZM74.52 20V20.2H74.6181L74.6782 20.1224L74.52 20ZM64 20L63.8458 19.8726L63.5754 20.2H64V20ZM112.52 0V-0.2H112.426L112.366 -0.127368L112.52 0ZM122 0L122.158 0.122416L122.408 -0.2L122 -0.2V0ZM106.52 20V20.2H106.618L106.678 20.1224L106.52 20ZM96 20L95.8458 19.8726L95.5754 20.2H96V20ZM144.52 0V-0.2H144.426L144.366 -0.127368L144.52 0ZM154 0L154.158 0.122415L154.408 -0.2H154V0ZM138.52 20V20.2H138.618L138.678 20.1224L138.52 20ZM128 20L127.846 19.8726L127.575 20.2H128V20ZM176.52 0V-0.2H176.426L176.366 -0.127368L176.52 0ZM186 0L186.158 0.122415L186.408 -0.2H186V0ZM170.52 20V20.2H170.618L170.678 20.1224L170.52 20ZM160 20L159.846 19.8726L159.575 20.2H160V20ZM208.52 0V-0.2H208.426L208.366 -0.127368L208.52 0ZM218 0L218.158 0.122415L218.408 -0.2H218V0ZM202.52 20V20.2H202.618L202.678 20.1224L202.52 20ZM192 20L191.846 19.8726L191.575 20.2H192V20ZM240.52 0V-0.2H240.426L240.366 -0.127368L240.52 0ZM250 0L250.158 0.122415L250.408 -0.2H250V0ZM234.52 20V20.2H234.618L234.678 20.1224L234.52 20ZM224 20L223.846 19.8726L223.575 20.2H224V20ZM272.52 0V-0.2H272.426L272.366 -0.127368L272.52 0ZM282 0L282.158 0.122416L282.408 -0.2L282 -0.2V0ZM266.52 20V20.2H266.618L266.678 20.1224L266.52 20ZM256 20L255.846 19.8726L255.575 20.2H256V20ZM304.52 0V-0.2H304.426L304.366 -0.127368L304.52 0ZM314 0L314.158 0.122416L314.408 -0.2L314 -0.2V0ZM298.52 20V20.2H298.618L298.678 20.1224L298.52 20ZM288 20L287.846 19.8726L287.575 20.2H288V20ZM336.52 0V-0.2H336.426L336.366 -0.127368L336.52 0ZM346 0L346.158 0.122416L346.408 -0.2L346 -0.2V0ZM330.52 20V20.2H330.618L330.678 20.1224L330.52 20ZM320 20L319.846 19.8726L319.575 20.2H320V20ZM367.52 0V-0.2H367.426L367.366 -0.127368L367.52 0ZM377 0L377.158 0.122416L377.408 -0.2L377 -0.2V0ZM361.52 20V20.2H361.618L361.678 20.1224L361.52 20ZM351 20L350.846 19.8726L350.575 20.2H351V20ZM399.52 0V-0.2H399.426L399.366 -0.127368L399.52 0ZM409 0L409.158 0.122416L409.408 -0.2L409 -0.2V0ZM393.52 20V20.2H393.618L393.678 20.1224L393.52 20ZM383 20L382.846 19.8726L382.575 20.2H383V20ZM16.52 0.2H26V-0.2H16.52V0.2ZM25.8418 -0.122416L10.3618 19.8776L10.6782 20.1224L26.1582 0.122416L25.8418 -0.122416ZM10.52 19.8H0V20.2H10.52V19.8ZM0.154199 20.1274L16.6742 0.127368L16.3658 -0.127368L-0.154199 19.8726L0.154199 20.1274ZM48.52 0.2H58V-0.2H48.52V0.2ZM57.8418 -0.122415L42.3618 19.8776L42.6782 20.1224L58.1582 0.122415L57.8418 -0.122415ZM42.52 19.8H32V20.2H42.52V19.8ZM32.1542 20.1274L48.6742 0.127368L48.3658 -0.127368L31.8458 19.8726L32.1542 20.1274ZM80.52 0.2H90V-0.2H80.52V0.2ZM89.8418 -0.122416L74.3618 19.8776L74.6782 20.1224L90.1582 0.122416L89.8418 -0.122416ZM74.52 19.8H64V20.2H74.52V19.8ZM64.1542 20.1274L80.6742 0.127368L80.3658 -0.127368L63.8458 19.8726L64.1542 20.1274ZM112.52 0.2H122V-0.2H112.52V0.2ZM121.842 -0.122416L106.362 19.8776L106.678 20.1224L122.158 0.122416L121.842 -0.122416ZM106.52 19.8H96V20.2H106.52V19.8ZM96.1542 20.1274L112.674 0.127368L112.366 -0.127368L95.8458 19.8726L96.1542 20.1274ZM144.52 0.2H154V-0.2H144.52V0.2ZM153.842 -0.122415L138.362 19.8776L138.678 20.1224L154.158 0.122415L153.842 -0.122415ZM138.52 19.8H128V20.2H138.52V19.8ZM128.154 20.1274L144.674 0.127368L144.366 -0.127368L127.846 19.8726L128.154 20.1274ZM176.52 0.2H186V-0.2H176.52V0.2ZM185.842 -0.122415L170.362 19.8776L170.678 20.1224L186.158 0.122415L185.842 -0.122415ZM170.52 19.8H160V20.2H170.52V19.8ZM160.154 20.1274L176.674 0.127368L176.366 -0.127368L159.846 19.8726L160.154 20.1274ZM208.52 0.2H218V-0.2H208.52V0.2ZM217.842 -0.122415L202.362 19.8776L202.678 20.1224L218.158 0.122415L217.842 -0.122415ZM202.52 19.8H192V20.2H202.52V19.8ZM192.154 20.1274L208.674 0.127368L208.366 -0.127368L191.846 19.8726L192.154 20.1274ZM240.52 0.2H250V-0.2H240.52V0.2ZM249.842 -0.122415L234.362 19.8776L234.678 20.1224L250.158 0.122415L249.842 -0.122415ZM234.52 19.8H224V20.2H234.52V19.8ZM224.154 20.1274L240.674 0.127368L240.366 -0.127368L223.846 19.8726L224.154 20.1274ZM272.52 0.2H282V-0.2H272.52V0.2ZM281.842 -0.122416L266.362 19.8776L266.678 20.1224L282.158 0.122416L281.842 -0.122416ZM266.52 19.8H256V20.2H266.52V19.8ZM256.154 20.1274L272.674 0.127368L272.366 -0.127368L255.846 19.8726L256.154 20.1274ZM304.52 0.2H314V-0.2H304.52V0.2ZM313.842 -0.122416L298.362 19.8776L298.678 20.1224L314.158 0.122416L313.842 -0.122416ZM298.52 19.8H288V20.2H298.52V19.8ZM288.154 20.1274L304.674 0.127368L304.366 -0.127368L287.846 19.8726L288.154 20.1274ZM336.52 0.2H346V-0.2H336.52V0.2ZM345.842 -0.122416L330.362 19.8776L330.678 20.1224L346.158 0.122416L345.842 -0.122416ZM330.52 19.8H320V20.2H330.52V19.8ZM320.154 20.1274L336.674 0.127368L336.366 -0.127368L319.846 19.8726L320.154 20.1274ZM367.52 0.2H377V-0.2H367.52V0.2ZM376.842 -0.122416L361.362 19.8776L361.678 20.1224L377.158 0.122416L376.842 -0.122416ZM361.52 19.8H351V20.2H361.52V19.8ZM351.154 20.1274L367.674 0.127368L367.366 -0.127368L350.846 19.8726L351.154 20.1274ZM399.52 0.2H409V-0.2H399.52V0.2ZM408.842 -0.122416L393.362 19.8776L393.678 20.1224L409.158 0.122416L408.842 -0.122416ZM393.52 19.8H383V20.2H393.52V19.8ZM383.154 20.1274L399.674 0.127368L399.366 -0.127368L382.846 19.8726L383.154 20.1274Z" fill="#3579FE" mask="url(#path-1-inside-1_263_290)"/>
</svg>
